<svg xmlns="http://www.w3.org/2000/svg" width="37.578" height="44" viewBox="0 0 37.578 44">
  <path id="Linux" d="M58.669,35.328c-1.29-.528-1.842-1.23-1.789-2.276a3.489,3.489,0,0,0-.967-2.469,10.7,10.7,0,0,0,0-5.668c-.837-2.442-3.394-6.173-6.031-9.839-1.08-1.506-1.131-3.143-1.19-5.038A15.317,15.317,0,0,0,47.564,3.9,6.345,6.345,0,0,0,41.53,0,8.26,8.26,0,0,0,36.94,1.4C34.3,3.216,34.653,7.182,34.884,9.806c.032.359.061.7.079.989a13,13,0,0,1-.169,4.337,17.8,17.8,0,0,1-1.315,1.846c-.637.838-1.358,1.789-1.95,2.674a20.95,20.95,0,0,0-1.827,4.27,20.471,20.471,0,0,1-1.155,2.892,3.938,3.938,0,0,0-.382,2.958,3.04,3.04,0,0,0-.975,1.234c-.392.837-1.188,1.286-2.842,1.6a2.191,2.191,0,0,0-1.559.95,2.7,2.7,0,0,0,.017,2.153,3.35,3.35,0,0,1-.221,2.427c-.076.231-.163.493-.251.782a1.41,1.41,0,0,0,.148,1.232c.625.955,2.448,1.292,4.325,1.514a16.67,16.67,0,0,1,3.533,1.015,16.587,16.587,0,0,0,3.457,1,3.928,3.928,0,0,0,.489.031,2.876,2.876,0,0,0,2.631-1.544,29.244,29.244,0,0,1,4.742-.56,20.6,20.6,0,0,1,4.714.484,3.792,3.792,0,0,0,1.42,1.547,3.446,3.446,0,0,0,1.6.36h0A3.852,3.852,0,0,0,52.2,42.84a25.161,25.161,0,0,1,5.093-3.253c.39-.211.754-.408,1.073-.586a2.4,2.4,0,0,0,1.468-2.131A1.8,1.8,0,0,0,58.669,35.328Zm-21.707-.2c-.122-.86-1.228-1.713-2.509-2.7a8.875,8.875,0,0,1-2.562-2.5c-.676-1.6-.143-4.41.786-5.857a14.874,14.874,0,0,0,1.2-2.887,10.376,10.376,0,0,1,1.249-2.854,7.282,7.282,0,0,0,1.5-3.633A4.534,4.534,0,0,0,39.3,16.159a1.577,1.577,0,0,0,.429-.058,14.455,14.455,0,0,0,2.563-1.291,10.95,10.95,0,0,1,2.178-1.094c.642.922,4.375,9.183,4.757,11.836a12.544,12.544,0,0,1-.177,4.514,3.321,3.321,0,0,0-.444-.032c-1.04,0-1.315.568-1.387.906a36.7,36.7,0,0,0-.206,4.328A8.6,8.6,0,0,1,42,38.4a21.676,21.676,0,0,1-3.086.244,10.425,10.425,0,0,1-1.522-.094L36.023,36.98A1.666,1.666,0,0,0,36.962,35.133ZM38.7,9.254q-.064.028-.126.059a2.554,2.554,0,0,0-.029-.282,1.6,1.6,0,0,0-1.359-1.488.96.96,0,0,0-.147.012,1.137,1.137,0,0,0-.84.752c.143-.886.645-1.543,1.241-1.543.7,0,1.291.943,1.291,2.059A3.046,3.046,0,0,1,38.7,9.254Zm5.437.665a2.184,2.184,0,0,0,.1-.654,1.642,1.642,0,0,0-1.462-1.8,1.659,1.659,0,0,0-1.453,1.8q0,.1.01.2l-.124-.047a2.759,2.759,0,0,1-.139-.868,2,2,0,0,1,1.724-2.194,2,2,0,0,1,1.724,2.194A2.583,2.583,0,0,1,44.139,9.919Zm-.7,2.355c-.014.061-.043.088-.365.256-.163.085-.365.19-.619.345l-.169.1a15.686,15.686,0,0,1-2.707,1.436c-.294.04-.476-.074-.884-.352-.092-.063-.19-.129-.295-.2a3.466,3.466,0,0,1-1.264-1.224c.24-.186.836-.65,1.14-.925a3.294,3.294,0,0,1,1.55-.962.244.244,0,0,1,.046,0,15.419,15.419,0,0,1,1.908.681c.3.12.562.224.745.29A1.785,1.785,0,0,1,43.438,12.274ZM48.624,39.16a21.363,21.363,0,0,0,.64-4.645c-.014-.268-.038-.559-.061-.84a7.728,7.728,0,0,1-.041-1.541.282.282,0,0,1,.043-.016A2.616,2.616,0,0,0,50.429,34.6a2.705,2.705,0,0,0,1.087.21A4.44,4.44,0,0,0,54.275,33.8a5.019,5.019,0,0,0,.7-.919,1.11,1.11,0,0,1,.048.434,3.1,3.1,0,0,0,1.337,2.8l.134.07c.327.172,1.2.628,1.21.844a.192.192,0,0,1-.056.071,12.543,12.543,0,0,1-1.725.969A15.075,15.075,0,0,0,52.451,40.2,4.745,4.745,0,0,1,49.8,41.854a.7.7,0,0,1-.211-.03C48.89,41.606,48.315,40.6,48.624,39.16ZM24.8,35.413a1.957,1.957,0,0,1-.067-.852c.044-.189.977-.392,1.375-.478a5.36,5.36,0,0,0,1.518-.477,3.079,3.079,0,0,0,1.034-1.388,2.155,2.155,0,0,1,.578-.867.123.123,0,0,1,.067-.016c.408,0,1.264.857,1.757,1.625.125.193.357.581.625,1.03a32.92,32.92,0,0,0,2.473,3.794c.517.554,1.353,1.618,1.147,2.531a2.772,2.772,0,0,1-1.142,1.411,1.17,1.17,0,0,1-.254.024,16.222,16.222,0,0,1-4.436-1.4l-.173-.073a14.062,14.062,0,0,0-2.744-.612,8.963,8.963,0,0,1-2.125-.478c-.151-.169.024-.718.178-1.2A7.8,7.8,0,0,0,24.9,36.9,3.95,3.95,0,0,0,24.8,35.413Z" transform="translate(-22.257)" fill="#fff"/>
</svg>
