<svg id="optilogo_footer" xmlns="http://www.w3.org/2000/svg" xmlns:xlink="http://www.w3.org/1999/xlink" width="41.594" height="41.594" viewBox="0 0 41.594 41.594">
  <defs>
    <clipPath id="clip-path">
      <path id="Path_21" data-name="Path 21" d="M3153.033,1579.556a9.186,9.186,0,0,1,9.111,0c3,1.716,6.915,3.954,9.916,5.669a9.01,9.01,0,0,1,4.556,7.814v11.337a9.008,9.008,0,0,1-4.556,7.814c-3,1.716-6.915,3.954-9.916,5.668a9.186,9.186,0,0,1-9.111,0c-3-1.714-6.913-3.952-9.913-5.668a9.008,9.008,0,0,1-4.555-7.814v-11.337a9.01,9.01,0,0,1,4.555-7.814C3146.12,1583.51,3150.032,1581.272,3153.033,1579.556Zm11,21.278a2.987,2.987,0,0,0,0-4.255l-4.294-4.253a3.06,3.06,0,0,0-4.294,0l-4.3,4.253a2.992,2.992,0,0,0,0,4.255l4.3,4.253a3.057,3.057,0,0,0,4.294,0Z" transform="translate(-3138.564 -1578.347)"/>
    </clipPath>
  </defs>
  <g id="Group_263" data-name="Group 263">
    <g id="Group_262" data-name="Group 262">
      <path id="Path_16" data-name="Path 16" d="M3153.033,1579.556a9.186,9.186,0,0,1,9.111,0c3,1.716,6.915,3.954,9.916,5.669a9.01,9.01,0,0,1,4.556,7.814v11.337a9.008,9.008,0,0,1-4.556,7.814c-3,1.716-6.915,3.954-9.916,5.668a9.186,9.186,0,0,1-9.111,0c-3-1.714-6.913-3.952-9.913-5.668a9.008,9.008,0,0,1-4.555-7.814v-11.337a9.01,9.01,0,0,1,4.555-7.814C3146.12,1583.51,3150.032,1581.272,3153.033,1579.556Zm11,21.278a2.987,2.987,0,0,0,0-4.255l-4.294-4.253a3.06,3.06,0,0,0-4.294,0l-4.3,4.253a2.992,2.992,0,0,0,0,4.255l4.3,4.253a3.057,3.057,0,0,0,4.294,0Z" transform="translate(-3138.564 -1578.347)" fill="#55c595"/>
      <g id="Group_261" data-name="Group 261" transform="translate(0)" clip-path="url(#clip-path)">
        <g id="Group_260" data-name="Group 260" transform="translate(0 -1.819)">
          <g id="Group_256" data-name="Group 256" transform="translate(0 1.819)">
            <path id="Path_17" data-name="Path 17" d="M3162.1,1579.532a11.086,11.086,0,0,0-6.732-.738l13.32,12.219a3.692,3.692,0,0,1,0,5.257l-4.216,4.008h0a2.991,2.991,0,0,0-.443-3.7l-4.294-4.253a3.016,3.016,0,0,0-.887-.609l-3.887-4.014a3.78,3.78,0,0,0-5.309,0l-11.089,10.98v-5.644a9.01,9.01,0,0,1,4.555-7.814c3-1.714,6.913-3.952,9.913-5.669a9.186,9.186,0,0,1,9.111,0Z" transform="translate(-3138.564 -1578.347)" fill="#12eb90"/>
          </g>
          <g id="Group_257" data-name="Group 257" transform="translate(38.051 42.653) rotate(180)">
            <path id="Path_18" data-name="Path 18" d="M23.538,1.185A11.09,11.09,0,0,0,16.805.447L30.126,12.666a3.692,3.692,0,0,1,0,5.257l-4.216,4.008h0a2.99,2.99,0,0,0-.443-3.7l-4.294-4.253a3.014,3.014,0,0,0-.887-.61L16.4,9.356a3.78,3.78,0,0,0-5.309,0L0,20.336V14.691A9.01,9.01,0,0,1,4.556,6.877c3-1.714,6.912-3.952,9.913-5.668a9.187,9.187,0,0,1,9.111,0Z" transform="translate(0 0)" fill="#05ad66"/>
          </g>
          <g id="Group_258" data-name="Group 258" transform="translate(14.376 0)">
            <path id="Path_19" data-name="Path 19" d="M3216.4,1568.437c2.069-.353,7.33,1.919,9.2,2.991,3,1.716,6.915,3.954,9.916,5.668a9.01,9.01,0,0,1,4.556,7.814v5.811l-11.09,10.982a3.781,3.781,0,0,1-5.309,0l-4.037-4.169h2.335a.738.738,0,0,0,.512-.2c1.442-1.369,9.664-9.187,9.664-9.187a3.693,3.693,0,0,0,0-5.258Z" transform="translate(-3216.397 -1568.4)" fill="#08d57f"/>
          </g>
          <g id="Group_259" data-name="Group 259" transform="translate(21.867 42.982) rotate(180)">
            <path id="Path_20" data-name="Path 20" d="M0,.2C1.535-.371,5.252.351,7.4,1.532,10.425,3.2,14.311,5.486,17.312,7.2a9.01,9.01,0,0,1,4.556,7.814v5.811L10.778,31.807a3.78,3.78,0,0,1-5.309,0L1.431,27.638a4.389,4.389,0,0,0,2.4.044.732.732,0,0,0,.383-.193c1.255-1.191,9.725-9.243,9.725-9.243a3.692,3.692,0,0,0,0-5.257Z" transform="translate(0 0)" fill="#049a5b"/>
          </g>
        </g>
      </g>
    </g>
  </g>
</svg>
