<svg xmlns="http://www.w3.org/2000/svg" width="36.819" height="44" viewBox="0 0 36.819 44">
  <path id="MacOS" d="M30.75,23.376a9.77,9.77,0,0,0,6.069,8.9,23.788,23.788,0,0,1-3.129,6.258c-1.885,2.68-3.841,5.351-6.922,5.406C23.74,44,22.766,42.2,19.3,42.2S14.762,43.888,11.9,44c-2.974.11-5.239-2.9-7.14-5.569C.874,32.965-2.094,22.992,1.891,16.259a11.116,11.116,0,0,1,9.356-5.515c2.921-.054,5.677,1.912,7.463,1.912s5.134-2.365,8.656-2.017A10.664,10.664,0,0,1,35.637,15c-.214.129-4.938,2.805-4.887,8.372M25.06,7.025A9.523,9.523,0,0,0,27.412,0a10.234,10.234,0,0,0-6.661,3.335,9.057,9.057,0,0,0-2.4,6.806A8.476,8.476,0,0,0,25.06,7.025" transform="translate(0)" fill="#fff"/>
</svg>
